{
	"asset":{
		"generator":"Khronos glTF Blender I/O v3.6.27",
		"version":"2.0"
	},
	"scene":0,
	"scenes":[
		{
			"name":"Scene",
			"nodes":[
				0
			]
		}
	],
	"nodes":[
		{
			"mesh":0,
			"name":"arrow",
			"rotation":[
				0.5,
				0.5,
				0.5,
				0.5000000596046448
			]
		}
	],
	"materials":[
		{
			"doubleSided":true,
			"name":"Material.001",
			"pbrMetallicRoughness":{
				"baseColorFactor":[
					0.8307691812515259,
					1,
					0.14702756702899933,
					1
				],
				"metallicFactor":0,
				"roughnessFactor":0.5
			}
		}
	],
	"meshes":[
		{
			"name":"arrow",
			"primitives":[
				{
					"attributes":{
						"POSITION":0,
						"NORMAL":1,
						"TEXCOORD_0":2
					},
					"indices":3,
					"material":0
				}
			]
		}
	],
	"accessors":[
		{
			"bufferView":0,
			"componentType":5126,
			"count":1318,
			"max":[
				-0.009389616549015045,
				0.33679044246673584,
				1.1183205842971802
			],
			"min":[
				-3.05979323387146,
				-0.33679044246673584,
				-1.1183205842971802
			],
			"type":"VEC3"
		},
		{
			"bufferView":1,
			"componentType":5126,
			"count":1318,
			"type":"VEC3"
		},
		{
			"bufferView":2,
			"componentType":5126,
			"count":1318,
			"type":"VEC2"
		},
		{
			"bufferView":3,
			"componentType":5123,
			"count":4212,
			"type":"SCALAR"
		}
	],
	"bufferViews":[
		{
			"buffer":0,
			"byteLength":15816,
			"byteOffset":0,
			"target":34962
		},
		{
			"buffer":0,
			"byteLength":15816,
			"byteOffset":15816,
			"target":34962
		},
		{
			"buffer":0,
			"byteLength":10544,
			"byteOffset":31632,
			"target":34962
		},
		{
			"buffer":0,
			"byteLength":8424,
			"byteOffset":42176,
			"target":34963
		}
	],
	"buffers":[
		{
			"byteLength":50600,
			"uri":"data:application/octet-stream;base64,"
		}
	]
}
